<svg xmlns="http://www.w3.org/2000/svg" width="37" height="20.086" viewBox="0 0 37 20.086"><defs><style>.a{fill:#e65250;}.b,.c{stroke:none;}.c{fill:#fff;}</style></defs><g transform="translate(-217 -567)"><g class="a" transform="translate(4971 7183.337)"><path class="b" d="M -4724.599609375 -6596.75 C -4726.03857421875 -6596.75 -4727.2470703125 -6597.7607421875 -4727.53466796875 -6599.12548828125 L -4744.06396484375 -6599.12548828125 C -4744.3515625 -6597.7607421875 -4745.56005859375 -6596.75 -4746.9990234375 -6596.75 C -4748.4384765625 -6596.75 -4749.64697265625 -6597.7607421875 -4749.9345703125 -6599.12548828125 L -4751.599609375 -6599.12548828125 C -4752.6474609375 -6599.12548828125 -4753.49951171875 -6600.16259765625 -4753.49951171875 -6601.43701171875 L -4753.49951171875 -6601.4404296875 L -4753.49951171875 -6601.44384765625 L -4753.33837890625 -6613.52734375 C -4753.33642578125 -6614.80078125 -4752.48486328125 -6615.83642578125 -4751.4384765625 -6615.83642578125 L -4723.0419921875 -6615.83642578125 C -4722.6708984375 -6615.83642578125 -4722.3125 -6615.56982421875 -4721.4814453125 -6614.162109375 C -4720.9921875 -6613.333984375 -4720.38330078125 -6612.171875 -4719.76611328125 -6610.8896484375 C -4718.92431640625 -6609.14111328125 -4717.5 -6605.951171875 -4717.5 -6605.08935546875 L -4717.5 -6601.43701171875 C -4717.5 -6600.16259765625 -4718.35302734375 -6599.12548828125 -4719.4013671875 -6599.12548828125 L -4721.666015625 -6599.12548828125 C -4721.953125 -6597.7607421875 -4723.1611328125 -6596.75 -4724.599609375 -6596.75 Z"/><path class="c" d="M -4724.599609375 -6597.25 C -4723.26171875 -6597.25 -4722.1689453125 -6598.3037109375 -4722.10400390625 -6599.62548828125 L -4719.4013671875 -6599.62548828125 C -4718.62744140625 -6599.62548828125 -4718 -6600.435546875 -4718 -6601.43701171875 C -4718 -6601.43701171875 -4718 -6603.86083984375 -4718 -6605.08935546875 C -4718 -6606.31640625 -4722.23046875 -6615.33642578125 -4723.0419921875 -6615.33642578125 C -4723.85546875 -6615.33642578125 -4751.4384765625 -6615.33642578125 -4751.4384765625 -6615.33642578125 C -4752.21240234375 -6615.33642578125 -4752.83837890625 -6614.5244140625 -4752.83837890625 -6613.5234375 L -4752.99951171875 -6601.43701171875 C -4752.99951171875 -6600.435546875 -4752.37353515625 -6599.62548828125 -4751.599609375 -6599.62548828125 L -4749.49658203125 -6599.62548828125 C -4749.431640625 -6598.3037109375 -4748.3388671875 -6597.25 -4746.9990234375 -6597.25 C -4745.65966796875 -6597.25 -4744.56689453125 -6598.3037109375 -4744.501953125 -6599.62548828125 L -4727.0966796875 -6599.62548828125 C -4727.03173828125 -6598.3037109375 -4725.93896484375 -6597.25 -4724.599609375 -6597.25 M -4724.599609375 -6596.25 C -4726.1357421875 -6596.25 -4727.447265625 -6597.23779296875 -4727.916015625 -6598.62548828125 L -4743.6826171875 -6598.62548828125 C -4744.1513671875 -6597.23779296875 -4745.462890625 -6596.25 -4746.9990234375 -6596.25 C -4748.53564453125 -6596.25 -4749.8466796875 -6597.23779296875 -4750.31591796875 -6598.62548828125 L -4751.599609375 -6598.62548828125 C -4752.28076171875 -6598.62548828125 -4752.9296875 -6598.96044921875 -4753.380859375 -6599.54443359375 C -4753.77978515625 -6600.060546875 -4753.99951171875 -6600.732421875 -4753.99951171875 -6601.43701171875 L -4753.99951171875 -6601.44384765625 L -4753.99951171875 -6601.4501953125 L -4753.83837890625 -6613.53076171875 C -4753.8369140625 -6614.23193359375 -4753.61767578125 -6614.9013671875 -4753.22021484375 -6615.41650390625 C -4752.76904296875 -6616.0009765625 -4752.11962890625 -6616.33642578125 -4751.4384765625 -6616.33642578125 L -4723.0419921875 -6616.33642578125 C -4722.39306640625 -6616.33642578125 -4721.9091796875 -6615.8701171875 -4721.05078125 -6614.41650390625 C -4720.5546875 -6613.57666015625 -4719.9384765625 -6612.4013671875 -4719.3154296875 -6611.1064453125 C -4718.71826171875 -6609.8662109375 -4718.1611328125 -6608.61376953125 -4717.74609375 -6607.5810546875 C -4717.08837890625 -6605.9462890625 -4717 -6605.40380859375 -4717 -6605.08935546875 L -4717 -6601.43701171875 C -4717 -6600.732421875 -4717.22021484375 -6600.06005859375 -4717.61962890625 -6599.54345703125 C -4718.0712890625 -6598.9599609375 -4718.720703125 -6598.62548828125 -4719.4013671875 -6598.62548828125 L -4721.28466796875 -6598.62548828125 C -4721.75341796875 -6597.23779296875 -4723.06396484375 -6596.25 -4724.599609375 -6596.25 Z"/></g></g></svg>