<svg xmlns="http://www.w3.org/2000/svg" width="37" height="20.086" viewBox="0 0 37 20.086">
  <defs>
    <style>
      .b,
      .c {
        stroke: none;
      }

      .c {
        fill: #fff;
      }
    </style>
  </defs>
  <g transform="translate(-183.001 -567)">
    <g transform="translate(4937 7183.337)">
      <path class="b"
        d="M -4724 -6596.75 C -4725.43896484375 -6596.75 -4726.6474609375 -6597.7607421875 -4726.93505859375 -6599.12548828125 L -4743.46484375 -6599.12548828125 C -4743.75244140625 -6597.7607421875 -4744.9609375 -6596.75 -4746.39990234375 -6596.75 C -4747.837890625 -6596.75 -4749.04541015625 -6597.7607421875 -4749.33349609375 -6599.12548828125 L -4751.59765625 -6599.12548828125 C -4752.64599609375 -6599.12548828125 -4753.4990234375 -6600.16259765625 -4753.4990234375 -6601.43701171875 L -4753.4990234375 -6605.08935546875 C -4753.4990234375 -6605.951171875 -4752.07470703125 -6609.14111328125 -4751.23291015625 -6610.8896484375 C -4750.6162109375 -6612.171875 -4750.0068359375 -6613.33447265625 -4749.51806640625 -6614.162109375 C -4748.6865234375 -6615.56982421875 -4748.328125 -6615.83642578125 -4747.95703125 -6615.83642578125 L -4719.560546875 -6615.83642578125 C -4718.51416015625 -6615.83642578125 -4717.66259765625 -6614.80078125 -4717.66064453125 -6613.52734375 L -4717.4990234375 -6601.44384765625 L -4717.4990234375 -6601.4404296875 L -4717.4990234375 -6601.43701171875 C -4717.4990234375 -6600.16259765625 -4718.3515625 -6599.12548828125 -4719.3994140625 -6599.12548828125 L -4721.064453125 -6599.12548828125 C -4721.35205078125 -6597.7607421875 -4722.560546875 -6596.75 -4724 -6596.75 Z" />
      <path class="c"
        d="M -4724 -6597.25 C -4722.66015625 -6597.25 -4721.5673828125 -6598.3037109375 -4721.50244140625 -6599.62548828125 L -4719.3994140625 -6599.62548828125 C -4718.62548828125 -6599.62548828125 -4717.9990234375 -6600.435546875 -4717.9990234375 -6601.43701171875 L -4718.16064453125 -6613.5234375 C -4718.16064453125 -6614.5244140625 -4718.78662109375 -6615.33642578125 -4719.560546875 -6615.33642578125 C -4719.560546875 -6615.33642578125 -4747.14404296875 -6615.33642578125 -4747.95703125 -6615.33642578125 C -4748.76904296875 -6615.33642578125 -4752.9990234375 -6606.31640625 -4752.9990234375 -6605.08935546875 C -4752.9990234375 -6603.86083984375 -4752.9990234375 -6601.43701171875 -4752.9990234375 -6601.43701171875 C -4752.9990234375 -6600.435546875 -4752.3720703125 -6599.62548828125 -4751.59765625 -6599.62548828125 L -4748.8955078125 -6599.62548828125 C -4748.830078125 -6598.3037109375 -4747.7373046875 -6597.25 -4746.39990234375 -6597.25 C -4745.060546875 -6597.25 -4743.9677734375 -6598.3037109375 -4743.90283203125 -6599.62548828125 L -4726.4970703125 -6599.62548828125 C -4726.43212890625 -6598.3037109375 -4725.33935546875 -6597.25 -4724 -6597.25 M -4724 -6596.25 C -4725.5361328125 -6596.25 -4726.84765625 -6597.23779296875 -4727.31640625 -6598.62548828125 L -4743.08349609375 -6598.62548828125 C -4743.55224609375 -6597.23779296875 -4744.86376953125 -6596.25 -4746.39990234375 -6596.25 C -4747.93505859375 -6596.25 -4749.24560546875 -6597.23779296875 -4749.71435546875 -6598.62548828125 L -4751.59765625 -6598.62548828125 C -4752.27880859375 -6598.62548828125 -4752.92822265625 -6598.9599609375 -4753.3798828125 -6599.5439453125 C -4753.779296875 -6600.06005859375 -4753.9990234375 -6600.732421875 -4753.9990234375 -6601.43701171875 L -4753.9990234375 -6605.08935546875 C -4753.9990234375 -6605.40380859375 -4753.91064453125 -6605.9462890625 -4753.25341796875 -6607.5810546875 C -4752.837890625 -6608.61376953125 -4752.28076171875 -6609.8662109375 -4751.68359375 -6611.1064453125 C -4751.060546875 -6612.4013671875 -4750.4443359375 -6613.57666015625 -4749.9482421875 -6614.41650390625 C -4749.08984375 -6615.8701171875 -4748.60595703125 -6616.33642578125 -4747.95703125 -6616.33642578125 L -4719.560546875 -6616.33642578125 C -4718.87939453125 -6616.33642578125 -4718.22998046875 -6616.0009765625 -4717.77880859375 -6615.41650390625 C -4717.38134765625 -6614.9013671875 -4717.162109375 -6614.232421875 -4717.16064453125 -6613.53076171875 L -4716.9990234375 -6601.4501953125 L -4716.9990234375 -6601.44384765625 L -4716.9990234375 -6601.43701171875 C -4716.9990234375 -6600.732421875 -4717.21875 -6600.06005859375 -4717.61767578125 -6599.5439453125 C -4718.0693359375 -6598.96044921875 -4718.71875 -6598.62548828125 -4719.3994140625 -6598.62548828125 L -4720.68310546875 -6598.62548828125 C -4721.15234375 -6597.23779296875 -4722.46337890625 -6596.25 -4724 -6596.25 Z" />
    </g>
  </g>
</svg>