<svg xmlns="http://www.w3.org/2000/svg" width="32.251" height="34.369" viewBox="0 0 32.251 34.369"><defs><style>.a{fill:#202c89;}</style></defs><g transform="translate(0)"><path class="a" d="M2.159,41.657c0-.185,0-.364-.009-.549-.014-.42-.415-.678-1.061-.678s-1.057.231-1.07.641c-.023.743-.028,1.486,0,2.228.014.406.388.591,1.066.581s1.08-.235,1.084-.614,0-.729,0-1.093H2.154C2.159,42,2.159,41.828,2.159,41.657Z" transform="translate(0.001 -23.844)"/><path class="a" d="M31.974,8.547a3.947,3.947,0,0,0-1.7-.348C25.1,8.17,19.943,8.182,14.778,8.17c-.451,0-.622.184-.647.639-.037.61.329.606.757.606q7.419-.006,14.838,0a2.177,2.177,0,0,1,.862.131c.94.418,1.249,1.532.789,2.765H14.159c-.212,1.1-.106,1.225.9,1.229q7.8.006,15.61.02c.854,0,.858,0,.858.832v9.922c0,.852,0,.852-.846.852q-11.421-.018-22.846-.025c-.549,0-.736-.172-.724-.713.024-1.1-.008-2.192,0-3.29,0-.5-.321-.438-.647-.455-.358-.02-.484.115-.484.479.008,4.244,0,8.488.016,12.733,0,.156.13.414.244.442.386.1.435.344.439.668.008.737,0,1.479.061,2.208a1.8,1.8,0,0,0,1.676,1.54c.789.008,1.582.008,2.375,0a1.718,1.718,0,0,0,1.615-1.426,20.92,20.92,0,0,0,.142-2.315c0-.492.175-.664.663-.655,1.659.037,3.323.049,4.982.053,2.416.008,4.828.016,7.24,0,.578,0,.813.18.789.795a11.889,11.889,0,0,0,.118,2.081A1.338,1.338,0,0,0,27.394,38.5a12.251,12.251,0,0,0,3.091.168,1.707,1.707,0,0,0,1.542-1.9,15.323,15.323,0,0,1,.012-1.729c.008-.184.138-.479.26-.508.488-.115.472-.451.476-.823q.079-9.052.163-18.108c.012-1.676.02-3.347,0-5.023A2.082,2.082,0,0,0,31.974,8.547ZM11.9,31.722a.463.463,0,0,1-.46.463H8.225a.463.463,0,0,1-.46-.463v-1.11a.461.461,0,0,1,.46-.463h3.217a.461.461,0,0,1,.46.463v1.11Zm19.12,0a.463.463,0,0,1-.46.463H27.346a.461.461,0,0,1-.46-.463v-1.11a.458.458,0,0,1,.46-.463h3.217a.461.461,0,0,1,.46.463Z" transform="translate(-3.22 -4.397)"/><path class="a" d="M75.209,37.257v-.941c0-.337,0-.674-.009-1.01-.014-.775-.415-1.25-1.061-1.255s-1.057.42-1.07,1.181c-.023,1.366-.028,2.736,0,4.106.014.752.388,1.089,1.066,1.07a1.041,1.041,0,0,0,1.084-1.135c0-.674,0-1.347,0-2.021C75.218,37.257,75.213,37.257,75.209,37.257Z" transform="translate(-42.969 -20.24)"/><path class="a" d="M7.383,26.5l5.3,0H12.7c.992,0,1.356-.923.586-1.892l-2.2-3.359-.042-1.781c0-.563-.083-.914.383-1.389h-2.9c.475.466.4.817.406,1.38l.018,1.781L6.645,24.7C6.087,25.637,6.465,26.551,7.383,26.5Z" transform="translate(-3.438 -10.816)"/><rect class="a" width="1.057" height="1.287" transform="matrix(0.813, -0.582, 0.582, 0.813, 5.139, 0.615)"/><rect class="a" width="1.698" height="1.698" transform="matrix(0.941, -0.338, 0.338, 0.941, 6.974, 0.821)"/><rect class="a" width="1.172" height="1.463" transform="translate(5.901 1.831)"/><rect class="a" width="0.877" height="0.937" transform="translate(4.715 2.657) rotate(-45)"/><rect class="a" width="2.109" height="2.168" transform="translate(3.835 3.819)"/><rect class="a" width="1.052" height="1.287" transform="translate(5.768 5.73)"/><rect class="a" width="2.519" height="2.579" transform="matrix(0.866, -0.5, 0.5, 0.866, 5.843, 4.447)"/></g></svg>