<?xml version="1.0" encoding="utf-8"?>
<!-- Generator: Adobe Illustrator 23.1.0, SVG Export Plug-In . SVG Version: 6.00 Build 0)  -->
<svg version="1.1" id="Layer_1" xmlns="http://www.w3.org/2000/svg" xmlns:xlink="http://www.w3.org/1999/xlink" x="0px" y="0px"
	 viewBox="0 0 96 27" style="enable-background:new 0 0 96 27;" xml:space="preserve">
<style type="text/css">
	.st0{enable-background:new    ;}
	.st1{fill:#404040;}
</style>
<g class="st0">
	<path class="st1" d="M1.3,21V5.9h12.1c0.8,0,1.5,0.1,2,0.2c0.5,0.1,1,0.3,1.3,0.6C17,7,17.3,7.4,17.4,7.9s0.2,1.1,0.2,1.9v0.9
		c0,1.4-0.7,2.3-2,2.5c0.7,0.1,1.2,0.4,1.7,0.8s0.7,1.1,0.7,2v1c0,0.8-0.1,1.4-0.3,1.9c-0.2,0.5-0.5,0.9-0.8,1.2
		c-0.4,0.3-0.9,0.5-1.4,0.6c-0.6,0.1-1.3,0.2-2.1,0.2H1.3z M14.7,10.2c0-0.5-0.1-0.8-0.3-1c-0.2-0.2-0.5-0.3-1-0.3H4.3v3.3h9.1
		c0.5,0,0.8-0.1,1-0.3c0.2-0.2,0.3-0.6,0.3-1.1V10.2z M15,16.1c0-0.6-0.1-0.9-0.3-1.2c-0.2-0.2-0.6-0.3-1.2-0.3H4.3V18h9.1
		c0.7,0,1.1-0.1,1.3-0.3c0.2-0.2,0.3-0.6,0.3-1.1V16.1z"/>
	<path class="st1" d="M24.9,21c-0.9,0-1.6-0.1-2.2-0.3c-0.6-0.2-1-0.5-1.4-0.9c-0.4-0.4-0.6-0.9-0.8-1.5c-0.2-0.6-0.2-1.3-0.2-2.1
		V9.1h2.9v7.5c0,0.6,0.1,1.1,0.4,1.4c0.2,0.3,0.7,0.5,1.3,0.5h3.5c0.4,0,0.8-0.1,1-0.4c0.2-0.2,0.4-0.5,0.5-0.9V9.1h2.9V21
		c-0.2,0-0.5,0-0.7-0.1c-0.2-0.1-0.4-0.2-0.6-0.3c-0.2-0.2-0.3-0.3-0.5-0.6c-0.1-0.2-0.2-0.5-0.2-0.9c-0.2,0.6-0.6,1.1-1.1,1.4
		c-0.6,0.3-1.3,0.5-2.4,0.5H24.9z"/>
	<path class="st1" d="M34.9,21c0.1-0.4,0.1-0.9,0.2-1.3c0.1-0.4,0.1-0.8,0.2-1.3h8.2c0.4,0,0.7-0.1,0.9-0.2c0.2-0.2,0.3-0.5,0.3-1
		s-0.1-0.9-0.3-1c-0.2-0.2-0.5-0.2-0.9-0.2h-4.4c-1.4,0-2.4-0.2-3-0.6c-0.7-0.4-1-1.1-1-2.1v-1.3c0-0.5,0.1-1,0.3-1.4
		c0.2-0.4,0.4-0.7,0.8-0.9c0.3-0.2,0.8-0.4,1.3-0.4s1.1-0.1,1.8-0.1h8.1l-0.4,2.6h-7.5c-0.4,0-0.7,0.1-0.9,0.2
		c-0.2,0.2-0.3,0.5-0.3,1c0,0.5,0.1,0.8,0.3,1c0.2,0.2,0.5,0.3,0.9,0.3h4.4c1.3,0,2.4,0.2,3,0.6c0.7,0.4,1,1.1,1,2.1v1.3
		c0,0.6-0.1,1-0.3,1.4c-0.2,0.4-0.4,0.6-0.8,0.8c-0.3,0.2-0.8,0.4-1.3,0.4C45,21,44.4,21,43.7,21H34.9z"/>
	<path class="st1" d="M50,21V5.9h3V18h11.4v3H50z"/>
	<path class="st1" d="M69.7,21c-1.4,0-2.4-0.2-3-0.7c-0.6-0.5-0.9-1.2-0.9-2.2v-1.3c0-1,0.3-1.7,0.9-2.2s1.6-0.6,2.9-0.6h4.1
		c0.6,0,1,0,1.3,0.1c0.3,0.1,0.6,0.2,0.8,0.3v-1.4c0-0.6-0.2-0.9-0.5-1.1c-0.3-0.2-0.9-0.3-1.7-0.3h-6.9L67,9.1h7
		c1,0,1.8,0.1,2.4,0.3c0.6,0.2,1.1,0.5,1.4,0.8c0.3,0.3,0.6,0.7,0.7,1.2c0.1,0.5,0.2,0.9,0.2,1.5V21c-0.4,0-0.8-0.1-1.2-0.4
		c-0.4-0.3-0.7-0.8-0.8-1.5c-0.2,0.5-0.5,1-1,1.3c-0.5,0.4-1.2,0.5-2.1,0.5H69.7z M75.8,16.1C75.6,16,75.3,16,75,15.9
		c-0.3-0.1-0.8-0.1-1.3-0.1h-3.6c-0.5,0-0.8,0.1-1,0.3c-0.2,0.2-0.3,0.5-0.3,1c0,0.5,0.1,0.8,0.3,1c0.2,0.2,0.5,0.3,1,0.3h3.6
		c0.5,0,1-0.1,1.4-0.3c0.4-0.2,0.7-0.5,0.8-1V16.1z"/>
	<path class="st1" d="M86.9,21c-1,0-1.8-0.2-2.4-0.5c-0.6-0.3-0.9-0.8-1.1-1.4c0,0.3-0.1,0.6-0.3,0.9c-0.1,0.2-0.3,0.4-0.5,0.6
		c-0.2,0.2-0.4,0.3-0.6,0.3C81.8,21,81.6,21,81.3,21V5.5l2.9-1v6.4c0.3-0.6,0.7-1.1,1.1-1.3c0.4-0.3,1-0.4,1.7-0.4h2.4
		c0.9,0,1.6,0.1,2.2,0.3c0.6,0.2,1.1,0.5,1.4,0.9c0.4,0.4,0.6,0.9,0.8,1.5c0.2,0.6,0.2,1.3,0.2,2.1v2.4c0,0.8-0.1,1.5-0.2,2.1
		c-0.2,0.6-0.4,1.1-0.8,1.5c-0.4,0.4-0.8,0.7-1.4,0.9C91,20.9,90.3,21,89.5,21H86.9z M91.1,14c0-0.8-0.1-1.4-0.3-1.7
		c-0.2-0.4-0.7-0.5-1.3-0.5H86c-0.5,0-0.9,0.1-1.2,0.3c-0.3,0.2-0.5,0.5-0.6,0.9V17c0.1,0.4,0.3,0.8,0.5,1c0.3,0.3,0.7,0.4,1.2,0.4
		h3.5c0.3,0,0.6,0,0.8-0.1c0.2-0.1,0.4-0.2,0.5-0.4c0.1-0.2,0.2-0.4,0.3-0.7s0.1-0.7,0.1-1.1V14z"/>
</g>
</svg>
